<svg version="1.1" id="Layer_1" xmlns="http://www.w3.org/2000/svg" xmlns:xlink="http://www.w3.org/1999/xlink" x="0px" y="0px"
	 width="100%" viewBox="0 0 5000 2500" enable-background="new 0 0 5000 2500" xml:space="preserve">
<path fill="#000000" opacity="1.000000" stroke="none" 
	d="
M5002.000000,1262.000000 
	C5002.000000,1675.284302 5002.000000,2088.568604 5002.000000,2501.926270 
	C3335.580078,2501.926270 1669.160400,2501.926270 2.000000,2501.926270 
	C2.000000,2324.601807 2.000000,2147.202637 2.930310,1968.778564 
	C118.184998,1967.724976 232.509369,1967.684937 346.833740,1967.671265 
	C466.158203,1967.656860 585.482666,1967.667847 704.807129,1967.667847 
	C709.016052,1967.667847 713.225037,1967.667847 717.674316,1967.667847 
	C717.674316,1938.361572 717.674316,1910.544312 717.674316,1881.671387 
	C712.454651,1881.671387 707.864929,1881.671509 703.275269,1881.671509 
	C503.956757,1881.671509 304.638275,1881.671509 105.319763,1881.670776 
	C101.986702,1881.670654 98.644058,1881.810791 95.323967,1881.600220 
	C93.137642,1881.461548 90.983810,1880.810425 88.339890,1880.296265 
	C88.339890,1853.068115 88.339890,1826.422363 88.339890,1799.776489 
	C88.339890,1773.445068 88.339890,1747.113770 88.339890,1720.782349 
	C88.339890,1694.117676 88.339890,1667.453003 88.339890,1640.788330 
	C88.339890,1614.456909 88.339890,1588.125610 88.339890,1561.794189 
	C88.339890,1535.129517 88.339890,1508.464844 88.339890,1481.800171 
	C88.339890,1455.135498 88.339890,1428.470825 88.339890,1401.806152 
	C88.339890,1375.474731 88.354828,1349.143433 88.335693,1322.812012 
	C88.316429,1296.297119 88.263298,1269.782227 88.223175,1242.000000 
	C58.515362,1242.000000 30.257681,1242.000000 2.000000,1242.000000 
	C2.000000,828.715698 2.000000,415.431396 2.000000,2.073540 
	C1668.419922,2.073540 3334.839844,2.073540 5002.000000,2.073540 
	C5002.000000,180.064789 5002.000000,358.130585 5001.069824,536.974854 
	C4766.158691,537.725647 4532.177246,537.695679 4298.196289,537.696045 
	C4295.291016,537.696045 4292.385742,538.083801 4289.661133,538.277771 
	C4287.313965,550.429810 4287.874023,616.231567 4290.468262,623.671143 
	C4316.220215,623.671143 4342.197754,623.671143 4368.175293,623.671143 
	C4394.506348,623.671143 4420.837891,623.671143 4447.168945,623.671143 
	C4473.166992,623.671143 4499.164551,623.671143 4525.162598,623.671143 
	C4551.493652,623.671143 4577.825195,623.671143 4604.156250,623.671143 
	C4630.154297,623.671143 4656.152344,623.671143 4682.150391,623.671143 
	C4708.481445,623.671143 4734.812988,623.671143 4761.144043,623.671143 
	C4787.142090,623.671143 4813.139648,623.612610 4839.137695,623.687561 
	C4865.304688,623.762939 4891.484375,623.350647 4918.328125,623.959839 
	C4918.328125,655.638977 4918.327637,685.931091 4918.327637,716.223206 
	C4918.327637,746.554138 4918.327637,776.885071 4918.327637,807.216003 
	C4918.327637,837.546936 4918.327637,867.877869 4918.327637,898.208801 
	C4918.327637,928.539734 4918.327637,958.870667 4918.327637,989.201599 
	C4918.327637,1019.532532 4918.327637,1049.863403 4918.327637,1080.194336 
	C4918.327637,1110.525269 4918.253906,1140.856445 4918.349609,1171.187012 
	C4918.443848,1201.335449 4917.925781,1231.498657 4918.683105,1262.000000 
	C4947.406738,1262.000000 4974.703125,1262.000000 5002.000000,1262.000000 
M2347.658936,1378.999878 
	C2347.658936,1424.319214 2347.633301,1469.638428 2347.702393,1514.957642 
	C2347.708740,1519.121582 2348.321289,1523.284424 2348.722656,1528.329834 
	C2353.410400,1528.329834 2357.024902,1528.329834 2360.639404,1528.329834 
	C2380.966797,1528.329956 2401.294434,1528.336792 2421.621826,1528.327881 
	C2436.322021,1528.321533 2436.337402,1528.312256 2436.338623,1513.273560 
	C2436.344482,1436.962280 2436.337646,1360.651001 2436.352783,1284.339722 
	C2436.353271,1280.914917 2436.525146,1277.490112 2436.617188,1274.065430 
	C2437.332275,1273.973022 2438.047119,1273.880615 2438.762207,1273.788208 
	C2444.591797,1284.872925 2450.495850,1295.919067 2456.238281,1307.048584 
	C2484.632568,1362.077637 2512.981445,1417.130127 2541.352051,1472.171265 
	C2546.690186,1482.527344 2552.108154,1492.842773 2557.381104,1503.231812 
	C2559.484619,1507.375610 2562.182617,1510.318848 2567.260498,1510.309570 
	C2589.587158,1510.268921 2611.914307,1510.258789 2634.240479,1510.342041 
	C2638.004395,1510.356079 2640.617432,1508.926147 2642.291016,1505.614746 
	C2643.642578,1502.940430 2645.051025,1500.294434 2646.391113,1497.614380 
	C2681.097900,1428.213013 2715.794922,1358.806641 2750.513184,1289.411011 
	C2752.075439,1286.288208 2753.822266,1283.257812 2755.483398,1280.184448 
	C2756.208496,1280.351685 2756.933838,1280.519043 2757.658936,1280.686279 
	C2757.658936,1295.804199 2757.658936,1310.921997 2757.658936,1326.039917 
	C2757.658936,1341.368774 2757.628174,1356.697876 2757.667969,1372.026611 
	C2757.707031,1387.210083 2757.479736,1402.405273 2757.835205,1417.586914 
	C2787.721680,1417.586914 2816.184326,1417.586914 2845.669678,1417.586914 
	C2845.669678,1412.950439 2845.669678,1409.018677 2845.669678,1405.086914 
	C2845.669678,1298.784302 2845.669678,1192.481689 2845.669434,1086.179077 
	C2845.669434,1084.512939 2845.706543,1082.845337 2845.654541,1081.180786 
	C2845.377686,1072.306641 2843.803467,1070.440063 2835.186035,1070.388062 
	C2812.193359,1070.249390 2789.199219,1070.427246 2766.206787,1070.281250 
	C2760.454590,1070.244751 2756.728027,1072.699097 2754.395508,1077.722900 
	C2751.873047,1083.156006 2749.361816,1088.594116 2746.837158,1094.026245 
	C2725.099365,1140.800537 2703.376221,1187.581665 2681.616211,1234.345703 
	C2659.435059,1282.014771 2637.239746,1329.677124 2614.997070,1377.317383 
	C2610.587402,1386.762573 2605.934570,1396.094238 2600.565430,1407.190796 
	C2597.803223,1401.863892 2595.927734,1398.414795 2594.201172,1394.892700 
	C2570.166016,1345.866089 2546.168213,1296.821289 2522.126953,1247.797607 
	C2494.713623,1191.898315 2467.135010,1136.079224 2439.992676,1080.048706 
	C2436.397217,1072.627197 2431.992920,1069.925171 2423.836670,1070.153076 
	C2404.190918,1070.702026 2384.519531,1070.331177 2364.858643,1070.330200 
	C2348.931396,1070.329468 2347.579834,1068.293091 2347.603027,1087.083740 
	C2347.723145,1183.722168 2347.658936,1280.361084 2347.658936,1378.999878 
M1916.341431,1409.000122 
	C1916.341431,1302.353882 1916.341797,1195.707520 1916.340942,1089.061279 
	C1916.340820,1086.061890 1916.445679,1083.056641 1916.299438,1080.064087 
	C1915.918579,1072.270142 1914.422241,1070.462402 1906.855103,1070.407471 
	C1883.860718,1070.240479 1860.863770,1070.254517 1837.868896,1070.388428 
	C1830.058105,1070.433960 1828.545654,1072.042969 1828.381348,1079.823608 
	C1828.198486,1088.484863 1828.330688,1097.152832 1828.330688,1105.817871 
	C1828.329834,1189.802124 1828.350220,1273.786255 1828.261719,1357.770386 
	C1828.257812,1361.380859 1829.551270,1365.435791 1826.440430,1369.206909 
	C1824.213623,1366.316895 1822.296265,1364.023315 1820.588257,1361.583252 
	C1773.041504,1293.659180 1725.522583,1225.715820 1677.983521,1157.786377 
	C1659.463989,1131.323730 1640.883911,1104.903198 1622.388794,1078.423462 
	C1619.255615,1073.937500 1616.210571,1070.161987 1609.777100,1070.235474 
	C1586.451172,1070.502563 1563.119995,1070.252197 1539.791748,1070.388062 
	C1531.765991,1070.434814 1530.093506,1072.372803 1529.686157,1080.592773 
	C1529.603760,1082.255371 1529.659546,1083.924927 1529.659546,1085.591309 
	C1529.658813,1192.904419 1529.658936,1300.217651 1529.659058,1407.530762 
	C1529.659058,1411.101685 1529.659058,1414.672729 1529.659058,1418.952393 
	C1559.656616,1418.952393 1588.419922,1418.952393 1618.457031,1418.952393 
	C1618.457031,1355.992554 1618.457031,1293.605225 1618.457031,1231.217773 
	C1619.260254,1230.956421 1620.063599,1230.695068 1620.866821,1230.433594 
	C1690.104126,1329.623535 1759.341309,1428.813477 1828.806763,1528.330322 
	C1850.627319,1528.330322 1872.270264,1528.332886 1893.913208,1528.328491 
	C1898.912109,1528.327515 1903.912598,1528.222168 1908.909668,1528.311890 
	C1913.977051,1528.402832 1916.190430,1525.790039 1916.275269,1520.978638 
	C1916.322266,1518.313232 1916.338501,1515.646973 1916.338867,1512.981079 
	C1916.342896,1478.987427 1916.341431,1444.993896 1916.341431,1409.000122 
M3243.124756,1512.215332 
	C3292.844482,1491.590454 3327.951416,1455.840942 3350.520508,1407.504639 
	C3375.020264,1355.033936 3380.012695,1300.247681 3367.981201,1243.868286 
	C3357.927002,1196.755371 3336.481201,1155.801880 3300.522949,1123.088745 
	C3281.073975,1105.395020 3258.910889,1092.168945 3234.037109,1083.580811 
	C3192.901855,1069.378418 3150.843994,1066.543457 3108.164795,1074.363647 
	C3037.283691,1087.351440 2986.242676,1126.621704 2955.698242,1191.847046 
	C2936.999268,1231.777466 2930.105957,1273.882935 2933.419434,1318.025635 
	C2936.258545,1355.844482 2945.736572,1391.428955 2964.459961,1424.351562 
	C2987.791992,1465.377930 3021.014160,1495.338623 3065.139160,1512.940186 
	C3094.024902,1524.463013 3123.934814,1528.628296 3154.937988,1528.562622 
	C3184.961670,1528.499023 3213.861816,1524.009155 3243.124756,1512.215332 
M622.325989,1195.000488 
	C622.325989,1214.872192 622.325989,1234.744019 622.325989,1254.327881 
	C635.646545,1256.652222 704.078064,1256.084717 711.284607,1253.748169 
	C711.409485,1251.238647 711.654053,1248.601929 711.655151,1245.965332 
	C711.677429,1191.646606 711.672668,1137.327881 711.668945,1083.009155 
	C711.668823,1081.343384 711.685608,1079.673828 711.584595,1078.012695 
	C711.296814,1073.280273 708.758911,1070.733643 704.019348,1070.409668 
	C703.355042,1070.364258 702.687317,1070.335815 702.021790,1070.345337 
	C656.456116,1071.002808 610.816223,1068.262207 565.358521,1073.812256 
	C534.819458,1077.540894 505.016632,1084.057495 476.803925,1096.564697 
	C427.393188,1118.469482 392.478302,1154.286133 375.349701,1205.909302 
	C356.376953,1263.090332 356.530457,1321.130981 371.861359,1378.974609 
	C384.920502,1428.246948 414.090637,1465.918213 458.446503,1491.368774 
	C499.463013,1514.903442 544.446045,1525.088745 591.040100,1527.360718 
	C627.609375,1529.144043 664.315735,1528.160156 700.961609,1528.300171 
	C710.915588,1528.338257 711.609070,1527.571411 711.646729,1517.369141 
	C711.725464,1496.041870 711.701843,1474.713989 711.633423,1453.386597 
	C711.624329,1450.546631 711.109680,1447.708252 710.775513,1444.326050 
	C706.138672,1444.326050 702.496521,1444.326172 698.854370,1444.326050 
	C667.529480,1444.325806 636.204102,1444.427246 604.879761,1444.291382 
	C582.158508,1444.192871 559.763428,1441.547607 538.058899,1434.443115 
	C491.020813,1419.046143 463.138428,1386.803833 454.039032,1338.316406 
	C449.718292,1315.292725 448.695160,1292.063110 452.442566,1268.871460 
	C460.895844,1216.555664 489.456757,1180.831299 540.332275,1164.084595 
	C561.020325,1157.274780 582.482056,1154.883911 604.165283,1154.378052 
	C609.990112,1154.242065 615.827393,1154.633911 622.325989,1154.800659 
	C622.325989,1168.394043 622.325989,1180.697510 622.325989,1195.000488 
M1997.659912,1140.999878 
	C1997.659912,1264.663330 1997.659424,1388.326904 1997.663452,1511.990356 
	C1997.663574,1515.323242 1997.657959,1518.657715 1997.753296,1521.988647 
	C1997.867798,1525.989136 1999.994019,1528.099121 2003.998901,1528.242920 
	C2005.996948,1528.314575 2007.997803,1528.324707 2009.997437,1528.324829 
	C2074.995850,1528.328613 2139.994141,1528.336304 2204.992432,1528.302979 
	C2208.210449,1528.301270 2211.428467,1527.936523 2214.914307,1527.724487 
	C2214.914307,1499.452881 2214.914307,1472.007935 2214.914307,1443.671021 
	C2203.557861,1443.671021 2192.936768,1443.671021 2182.315430,1443.671021 
	C2171.648926,1443.671021 2160.982666,1443.671021 2150.316162,1443.671021 
	C2139.649902,1443.671021 2128.980713,1443.820190 2118.317871,1443.628784 
	C2107.840332,1443.440796 2097.267090,1444.529053 2087.059326,1442.887085 
	C2085.172363,1423.248169 2085.935059,1348.453857 2088.230713,1340.329468 
	C2091.569824,1340.329468 2095.175781,1340.329468 2098.781494,1340.329468 
	C2133.780518,1340.329346 2168.779785,1340.329834 2203.778809,1340.328735 
	C2223.111572,1340.328003 2242.445068,1340.403931 2261.777100,1340.285034 
	C2270.192871,1340.233154 2272.182617,1338.532349 2272.253174,1330.597412 
	C2272.443359,1309.266479 2272.448730,1287.931274 2272.237793,1266.600708 
	C2272.160645,1258.791138 2269.756348,1256.754272 2261.903564,1256.366943 
	C2259.243164,1256.235718 2256.571289,1256.332397 2253.904785,1256.332397 
	C2202.239502,1256.331421 2150.574219,1256.342407 2098.908936,1256.309692 
	C2095.029053,1256.307251 2091.148926,1255.994751 2087.053711,1255.817139 
	C2087.053711,1221.693604 2087.053711,1188.571289 2087.053711,1154.328979 
	C2108.996826,1154.328979 2130.246094,1154.455322 2151.493408,1154.293335 
	C2172.638428,1154.132080 2193.819580,1155.018066 2214.757812,1153.723999 
	C2216.724121,1137.102661 2216.046875,1078.144653 2213.875732,1070.867065 
	C2212.370361,1070.705322 2210.743652,1070.378540 2209.116943,1070.377808 
	C2142.118652,1070.346680 2075.120605,1070.309448 2008.122314,1070.381226 
	C1999.146973,1070.390747 1997.755371,1071.902832 1997.701294,1081.001465 
	C1997.586304,1100.333618 1997.662231,1119.666870 1997.659912,1140.999878 
M3948.755615,1161.901001 
	C3963.072510,1136.726196 3977.396973,1111.555786 3991.702881,1086.374878 
	C3999.407959,1072.812500 3998.020996,1070.335327 3982.660645,1070.333130 
	C3901.005371,1070.321289 3819.350098,1070.327271 3737.694824,1070.328613 
	C3735.695068,1070.328735 3733.687012,1070.230713 3731.697266,1070.376709 
	C3725.490234,1070.832520 3723.807373,1072.111328 3723.759521,1078.145874 
	C3723.583252,1100.474365 3723.715576,1122.805298 3723.690918,1145.135254 
	C3723.685303,1150.192627 3726.250488,1152.383179 3731.136719,1152.304688 
	C3733.802002,1152.261963 3736.468750,1152.331665 3739.135010,1152.331787 
	C3777.796387,1152.334351 3816.457520,1152.321411 3855.118896,1152.354980 
	C3858.608643,1152.358032 3862.098145,1152.656616 3866.598145,1152.864746 
	C3865.055664,1156.178345 3864.270020,1158.286621 3863.153564,1160.202393 
	C3840.862061,1198.458740 3818.528076,1236.690430 3796.212891,1274.932861 
	C3790.845947,1284.130249 3785.351074,1293.258423 3780.222656,1302.587769 
	C3776.744141,1308.916382 3778.890869,1312.738403 3786.005127,1313.563477 
	C3788.309326,1313.830811 3790.666016,1313.668213 3792.998535,1313.669189 
	C3809.996094,1313.676514 3826.999023,1313.415771 3843.989990,1313.753174 
	C3859.511475,1314.061279 3872.985840,1319.661621 3884.735352,1330.084839 
	C3904.676025,1347.774414 3911.416260,1384.827271 3900.552246,1409.543213 
	C3890.566406,1432.262085 3872.980957,1445.005249 3848.621094,1445.206421 
	C3822.099121,1445.425781 3799.294922,1428.865723 3795.357666,1402.142944 
	C3793.514648,1389.632202 3793.076172,1389.680664 3780.224121,1389.670654 
	C3761.226807,1389.655884 3742.229248,1389.660034 3723.231934,1389.674805 
	C3720.568115,1389.676758 3717.898193,1389.692139 3715.241455,1389.861450 
	C3710.864258,1390.140625 3708.422363,1392.686035 3708.486572,1396.946777 
	C3708.556152,1401.572510 3709.148438,1406.198975 3709.665527,1410.807983 
	C3715.670410,1464.342651 3744.691162,1500.430664 3794.368896,1519.440674 
	C3830.875977,1533.411011 3868.426025,1531.952393 3905.062988,1519.793823 
	C3948.578613,1505.352295 3977.458008,1475.861938 3988.734619,1430.799561 
	C3997.514160,1395.715820 3995.657471,1360.700928 3984.105713,1326.565918 
	C3971.570801,1289.525635 3947.213867,1263.099121 3910.269775,1248.948730 
	C3907.509766,1247.891602 3904.852051,1246.567871 3901.423096,1245.047119 
	C3917.111572,1217.492188 3932.572998,1190.335938 3948.755615,1161.901001 
M4145.000000,1152.333252 
	C4173.189453,1152.333252 4201.379395,1152.333252 4231.284668,1152.333252 
	C4229.305176,1156.569458 4228.300781,1159.235352 4226.887695,1161.663940 
	C4210.148926,1190.438965 4193.359375,1219.184570 4176.561523,1247.925171 
	C4166.146484,1265.745972 4155.610840,1283.496948 4145.300781,1301.377930 
	C4140.813965,1309.158936 4142.982422,1312.915039 4151.997559,1313.619751 
	C4154.317383,1313.800903 4156.661621,1313.670776 4158.994629,1313.671265 
	C4175.658203,1313.675049 4192.322266,1313.622314 4208.985840,1313.694092 
	C4222.103516,1313.750610 4234.081055,1317.927490 4244.195801,1325.963501 
	C4267.475098,1344.458496 4273.606445,1369.273682 4268.599121,1397.513184 
	C4263.360352,1427.056274 4237.433594,1449.412231 4202.956543,1444.324585 
	C4180.816406,1441.057495 4162.093262,1422.546631 4159.718262,1400.792969 
	C4158.623535,1390.764038 4157.611328,1389.741577 4147.328613,1389.694458 
	C4128.332520,1389.607422 4109.334961,1389.665894 4090.338379,1389.668701 
	C4087.339111,1389.669189 4084.325684,1389.515381 4081.343506,1389.749023 
	C4075.121826,1390.236450 4073.867188,1391.388306 4073.748291,1397.764648 
	C4073.636475,1403.744995 4073.472656,1409.841675 4074.433350,1415.706787 
	C4083.310059,1469.904053 4114.536133,1505.274780 4166.394043,1521.988281 
	C4198.994141,1532.494995 4232.300781,1531.211792 4264.774414,1521.409180 
	C4310.959473,1507.468018 4341.710449,1477.308472 4353.567871,1429.919067 
	C4361.474609,1398.315430 4360.144043,1366.452026 4351.393555,1335.166626 
	C4342.471680,1303.270264 4325.130371,1276.966797 4296.282715,1259.547607 
	C4286.949219,1253.911621 4276.706543,1249.781006 4266.442383,1244.747437 
	C4267.915039,1242.003906 4269.412109,1239.072021 4271.035645,1236.211426 
	C4299.791016,1185.552246 4328.579590,1134.911743 4357.315430,1084.241455 
	C4363.202148,1073.860596 4361.251953,1070.517944 4349.443359,1070.333130 
	C4348.110840,1070.312256 4346.777344,1070.327515 4345.444336,1070.327515 
	C4317.782227,1070.327271 4290.120605,1070.326904 4262.458496,1070.327271 
	C4208.134277,1070.328003 4153.810547,1070.302734 4099.486328,1070.353149 
	C4089.169189,1070.362793 4087.757812,1071.698853 4087.696289,1081.712524 
	C4087.575439,1101.375122 4087.590820,1121.039307 4087.687744,1140.702148 
	C4087.740234,1151.316162 4088.692871,1152.249146 4099.007324,1152.308838 
	C4113.670898,1152.393555 4128.335938,1152.332153 4145.000000,1152.333252 
M791.656860,1438.999878 
	C791.656860,1448.995239 791.656799,1458.990601 791.656799,1468.985962 
	C791.656799,1478.648193 791.483582,1488.314331 791.705200,1497.971436 
	C791.930420,1507.786499 790.613281,1517.726196 792.880249,1528.331421 
	C797.292175,1528.331421 800.902100,1528.331421 804.511963,1528.331421 
	C823.169983,1528.331543 841.828003,1528.333008 860.486023,1528.330566 
	C863.817749,1528.330200 867.153870,1528.202271 870.480225,1528.331177 
	C875.547668,1528.527466 877.850647,1526.187012 877.659302,1521.152344 
	C877.558167,1518.491211 877.669556,1515.822388 877.669678,1513.156982 
	C877.671570,1461.181030 877.671265,1409.205200 877.671326,1357.229248 
	C877.671387,1353.333862 877.671265,1349.438477 877.671265,1344.889160 
	C882.120911,1344.662842 885.364319,1344.363159 888.608459,1344.355103 
	C907.266357,1344.309082 925.924866,1344.254272 944.582336,1344.349854 
	C973.284546,1344.497070 1000.816284,1338.844360 1026.949341,1327.105103 
	C1057.034058,1313.590820 1079.744629,1292.307495 1091.399902,1260.995239 
	C1104.693604,1225.281006 1103.461426,1189.110718 1091.145752,1153.440430 
	C1085.214111,1136.260620 1074.885864,1121.429199 1061.123779,1109.339844 
	C1030.637207,1082.558105 993.730164,1071.830933 954.433350,1070.690796 
	C903.832764,1069.222656 853.157227,1070.302124 802.514099,1070.359375 
	C792.678101,1070.370483 791.718262,1071.381836 791.683960,1081.322266 
	C791.607971,1103.311768 791.632385,1125.301880 791.704590,1147.291504 
	C791.712891,1149.817627 792.285522,1152.341919 792.695496,1155.671021 
	C797.245605,1155.671021 801.182556,1155.671021 805.119507,1155.671021 
	C851.431396,1155.671143 897.743530,1155.755249 944.054993,1155.615845 
	C956.539917,1155.578247 968.496460,1157.633667 980.132874,1162.129150 
	C1001.470215,1170.372192 1012.858643,1187.524170 1012.321472,1210.984619 
	C1011.857361,1231.251099 999.407227,1246.972046 978.252686,1254.044556 
	C964.831299,1258.531860 950.935364,1259.620850 936.931335,1259.642578 
	C892.618652,1259.711182 848.305786,1259.657959 803.992981,1259.686401 
	C800.131226,1259.688965 796.269653,1259.944946 791.656860,1260.109985 
	C791.656860,1319.826416 791.656860,1378.413086 791.656860,1438.999878 
M4440.776855,1071.671875 
	C4439.741699,1074.307495 4437.838379,1076.933472 4437.808594,1079.580444 
	C4437.566895,1101.230591 4437.568848,1122.885498 4437.733887,1144.537109 
	C4437.789062,1151.739136 4439.469727,1153.164673 4446.642090,1153.626831 
	C4448.964844,1153.776489 4451.304199,1153.672852 4453.636230,1153.672852 
	C4497.275391,1153.674438 4540.914062,1153.674194 4584.553223,1153.674316 
	C4588.125977,1153.674316 4591.699219,1153.674316 4596.728516,1153.674316 
	C4594.687500,1159.352661 4593.203125,1163.652100 4591.602539,1167.907837 
	C4553.187500,1270.023315 4514.759277,1372.134277 4476.335449,1474.246460 
	C4470.947754,1488.565430 4465.498535,1502.862183 4460.211426,1517.218506 
	C4456.760742,1526.588867 4457.968750,1528.189331 4468.230957,1528.317261 
	C4474.559082,1528.396240 4480.889648,1528.335083 4487.218750,1528.334351 
	C4505.207520,1528.332275 4523.197754,1528.209351 4541.184082,1528.403076 
	C4546.172363,1528.456787 4549.528809,1527.060669 4550.891602,1521.983398 
	C4551.405762,1520.067139 4552.316406,1518.258667 4553.021973,1516.391724 
	C4573.604980,1461.943604 4594.182129,1407.493286 4614.767090,1353.046021 
	C4648.410156,1264.063721 4682.054199,1175.081543 4715.711914,1086.104736 
	C4720.867676,1072.474121 4719.495605,1070.335938 4705.166992,1070.333618 
	C4620.553711,1070.319214 4535.940430,1070.321411 4451.327148,1070.348267 
	C4448.343750,1070.349243 4445.359863,1070.669189 4440.776855,1071.671875 
M3637.673340,1413.000122 
	C3637.673340,1380.690186 3637.673584,1348.380249 3637.673340,1316.070312 
	C3637.672852,1238.459961 3637.682373,1160.849731 3637.662598,1083.239380 
	C3637.659424,1070.837524 3637.147949,1070.359009 3624.566406,1070.335938 
	C3606.912598,1070.303467 3589.257080,1070.206909 3571.605957,1070.432373 
	C3568.098389,1070.477295 3564.208496,1071.103271 3561.170898,1072.726685 
	C3528.897705,1089.973267 3496.727539,1107.413574 3464.611816,1124.952026 
	C3456.869141,1129.180176 3456.644775,1130.411255 3460.388916,1138.329224 
	C3467.214355,1152.763672 3474.108887,1167.165405 3481.015381,1181.561401 
	C3485.757812,1191.445801 3487.506836,1192.202759 3498.041748,1188.374634 
	C3510.856445,1183.718384 3523.588867,1178.836182 3536.391113,1174.145020 
	C3540.333984,1172.700439 3544.388916,1171.561768 3549.655273,1169.879761 
	C3549.655273,1175.316772 3549.655518,1179.243286 3549.655518,1183.169800 
	C3549.655762,1293.423096 3549.644775,1403.676270 3549.695557,1513.929565 
	C3549.697754,1518.425049 3550.280273,1522.920410 3550.620117,1527.812012 
	C3579.641602,1527.812012 3607.500732,1527.812012 3635.364990,1527.812012 
	C3636.162842,1526.230835 3637.257568,1525.069702 3637.263916,1523.902588 
	C3637.466064,1487.602173 3637.561523,1451.301147 3637.673340,1413.000122 
M1272.326660,1366.999878 
	C1272.326904,1416.273193 1272.300659,1465.546387 1272.374878,1514.819580 
	C1272.381226,1518.993408 1273.058472,1523.166138 1273.511108,1528.333008 
	C1277.800049,1528.333008 1281.065308,1528.333130 1284.330566,1528.333130 
	C1305.637939,1528.333008 1326.945312,1528.362183 1348.252686,1528.321167 
	C1360.068359,1528.298340 1360.332642,1528.030640 1360.334961,1515.772705 
	C1360.351929,1426.215210 1360.349731,1336.657715 1360.320923,1247.100220 
	C1360.319824,1243.875610 1359.979004,1240.651001 1359.807861,1237.627563 
	C1347.090332,1235.304321 1279.765747,1235.887817 1272.326660,1238.447388 
	C1272.326660,1280.481201 1272.326660,1322.740479 1272.326660,1366.999878 
M1209.031494,1070.317749 
	C1201.702759,1070.324829 1194.368652,1070.160767 1187.046875,1070.389771 
	C1180.438477,1070.596436 1178.472900,1072.290527 1178.416138,1078.623779 
	C1178.228149,1099.608887 1178.235107,1120.597900 1178.414673,1141.583130 
	C1178.466919,1147.690552 1180.198853,1149.133911 1186.144653,1149.626221 
	C1188.130493,1149.790649 1190.140015,1149.680176 1192.138672,1149.680298 
	C1274.753906,1149.681763 1357.369019,1149.682373 1439.984253,1149.678101 
	C1442.315552,1149.677979 1444.653931,1149.729736 1446.976807,1149.574829 
	C1451.694092,1149.259888 1454.301392,1146.813354 1454.301270,1141.926270 
	C1454.300537,1120.606567 1454.308716,1099.286743 1454.291870,1077.967041 
	C1454.287964,1073.064575 1451.574097,1070.671143 1446.870483,1070.421997 
	C1443.879883,1070.263550 1440.876465,1070.321533 1437.878784,1070.321411 
	C1362.259277,1070.317139 1286.639648,1070.317993 1209.031494,1070.317749 
z"/>
<path fill="#00BE63" opacity="1.000000" stroke="none" 
	d="
M2.000000,1242.937256 
	C30.257681,1242.000000 58.515362,1242.000000 88.223175,1242.000000 
	C88.263298,1269.782227 88.316429,1296.297119 88.335693,1322.812012 
	C88.354828,1349.143433 88.339890,1375.474731 88.339890,1401.806152 
	C88.339890,1428.470825 88.339890,1455.135498 88.339890,1481.800171 
	C88.339890,1508.464844 88.339890,1535.129517 88.339890,1561.794189 
	C88.339890,1588.125610 88.339890,1614.456909 88.339890,1640.788330 
	C88.339890,1667.453003 88.339890,1694.117676 88.339890,1720.782349 
	C88.339890,1747.113770 88.339890,1773.445068 88.339890,1799.776489 
	C88.339890,1826.422363 88.339890,1853.068115 88.339890,1880.296265 
	C90.983810,1880.810425 93.137642,1881.461548 95.323967,1881.600220 
	C98.644058,1881.810791 101.986702,1881.670654 105.319763,1881.670776 
	C304.638275,1881.671509 503.956757,1881.671509 703.275269,1881.671509 
	C707.864929,1881.671509 712.454651,1881.671387 717.674316,1881.671387 
	C717.674316,1910.544312 717.674316,1938.361572 717.674316,1967.667847 
	C713.225037,1967.667847 709.016052,1967.667847 704.807129,1967.667847 
	C585.482666,1967.667847 466.158203,1967.656860 346.833740,1967.671265 
	C232.509369,1967.684937 118.184998,1967.724976 2.930310,1967.876709 
	C2.000000,1726.624878 2.000000,1485.249756 2.000000,1242.937256 
z"/>
<path fill="#00BE62" opacity="1.000000" stroke="none" 
	d="
M5002.000000,1261.062744 
	C4974.703125,1262.000000 4947.406738,1262.000000 4918.683105,1262.000000 
	C4917.925781,1231.498657 4918.443848,1201.335449 4918.349609,1171.187012 
	C4918.253906,1140.856445 4918.327637,1110.525269 4918.327637,1080.194336 
	C4918.327637,1049.863403 4918.327637,1019.532532 4918.327637,989.201599 
	C4918.327637,958.870667 4918.327637,928.539734 4918.327637,898.208801 
	C4918.327637,867.877869 4918.327637,837.546936 4918.327637,807.216003 
	C4918.327637,776.885071 4918.327637,746.554138 4918.327637,716.223206 
	C4918.327637,685.931091 4918.328125,655.638977 4918.328125,623.959839 
	C4891.484375,623.350647 4865.304688,623.762939 4839.137695,623.687561 
	C4813.139648,623.612610 4787.142090,623.671143 4761.144043,623.671143 
	C4734.812988,623.671143 4708.481445,623.671143 4682.150391,623.671143 
	C4656.152344,623.671143 4630.154297,623.671143 4604.156250,623.671143 
	C4577.825195,623.671143 4551.493652,623.671143 4525.162598,623.671143 
	C4499.164551,623.671143 4473.166992,623.671143 4447.168945,623.671143 
	C4420.837891,623.671143 4394.506348,623.671143 4368.175293,623.671143 
	C4342.197754,623.671143 4316.220215,623.671143 4290.468262,623.671143 
	C4287.874023,616.231567 4287.313965,550.429810 4289.661133,538.277771 
	C4292.385742,538.083801 4295.291016,537.696045 4298.196289,537.696045 
	C4532.177246,537.695679 4766.158691,537.725647 5001.069824,537.876709 
	C5002.000000,778.708435 5002.000000,1019.416931 5002.000000,1261.062744 
z"/>
<path fill="#00BE63" opacity="1.000000" stroke="none" 
	d="
M2347.658936,1377.999756 
	C2347.658936,1280.361084 2347.723145,1183.722168 2347.603027,1087.083740 
	C2347.579834,1068.293091 2348.931396,1070.329468 2364.858643,1070.330200 
	C2384.519531,1070.331177 2404.190918,1070.702026 2423.836670,1070.153076 
	C2431.992920,1069.925171 2436.397217,1072.627197 2439.992676,1080.048706 
	C2467.135010,1136.079224 2494.713623,1191.898315 2522.126953,1247.797607 
	C2546.168213,1296.821289 2570.166016,1345.866089 2594.201172,1394.892700 
	C2595.927734,1398.414795 2597.803223,1401.863892 2600.565430,1407.190796 
	C2605.934570,1396.094238 2610.587402,1386.762573 2614.997070,1377.317383 
	C2637.239746,1329.677124 2659.435059,1282.014771 2681.616211,1234.345703 
	C2703.376221,1187.581665 2725.099365,1140.800537 2746.837158,1094.026245 
	C2749.361816,1088.594116 2751.873047,1083.156006 2754.395508,1077.722900 
	C2756.728027,1072.699097 2760.454590,1070.244751 2766.206787,1070.281250 
	C2789.199219,1070.427246 2812.193359,1070.249390 2835.186035,1070.388062 
	C2843.803467,1070.440063 2845.377686,1072.306641 2845.654541,1081.180786 
	C2845.706543,1082.845337 2845.669434,1084.512939 2845.669434,1086.179077 
	C2845.669678,1192.481689 2845.669678,1298.784302 2845.669678,1405.086914 
	C2845.669678,1409.018677 2845.669678,1412.950439 2845.669678,1417.586914 
	C2816.184326,1417.586914 2787.721680,1417.586914 2757.835205,1417.586914 
	C2757.479736,1402.405273 2757.707031,1387.210083 2757.667969,1372.026611 
	C2757.628174,1356.697876 2757.658936,1341.368774 2757.658936,1326.039917 
	C2757.658936,1310.921997 2757.658936,1295.804199 2757.658936,1280.686279 
	C2756.933838,1280.519043 2756.208496,1280.351685 2755.483398,1280.184448 
	C2753.822266,1283.257812 2752.075439,1286.288208 2750.513184,1289.411011 
	C2715.794922,1358.806641 2681.097900,1428.213013 2646.391113,1497.614380 
	C2645.051025,1500.294434 2643.642578,1502.940430 2642.291016,1505.614746 
	C2640.617432,1508.926147 2638.004395,1510.356079 2634.240479,1510.342041 
	C2611.914307,1510.258789 2589.587158,1510.268921 2567.260498,1510.309570 
	C2562.182617,1510.318848 2559.484619,1507.375610 2557.381104,1503.231812 
	C2552.108154,1492.842773 2546.690186,1482.527344 2541.352051,1472.171265 
	C2512.981445,1417.130127 2484.632568,1362.077637 2456.238281,1307.048584 
	C2450.495850,1295.919067 2444.591797,1284.872925 2438.762207,1273.788208 
	C2438.047119,1273.880615 2437.332275,1273.973022 2436.617188,1274.065430 
	C2436.525146,1277.490112 2436.353271,1280.914917 2436.352783,1284.339722 
	C2436.337646,1360.651001 2436.344482,1436.962280 2436.338623,1513.273560 
	C2436.337402,1528.312256 2436.322021,1528.321533 2421.621826,1528.327881 
	C2401.294434,1528.336792 2380.966797,1528.329956 2360.639404,1528.329834 
	C2357.024902,1528.329834 2353.410400,1528.329834 2348.722656,1528.329834 
	C2348.321289,1523.284424 2347.708740,1519.121582 2347.702393,1514.957642 
	C2347.633301,1469.638428 2347.658936,1424.319214 2347.658936,1377.999756 
z"/>
<path fill="#00BE63" opacity="1.000000" stroke="none" 
	d="
M1916.341431,1410.000244 
	C1916.341431,1444.993896 1916.342896,1478.987427 1916.338867,1512.981079 
	C1916.338501,1515.646973 1916.322266,1518.313232 1916.275269,1520.978638 
	C1916.190430,1525.790039 1913.977051,1528.402832 1908.909668,1528.311890 
	C1903.912598,1528.222168 1898.912109,1528.327515 1893.913208,1528.328491 
	C1872.270264,1528.332886 1850.627319,1528.330322 1828.806763,1528.330322 
	C1759.341309,1428.813477 1690.104126,1329.623535 1620.866821,1230.433594 
	C1620.063599,1230.695068 1619.260254,1230.956421 1618.457031,1231.217773 
	C1618.457031,1293.605225 1618.457031,1355.992554 1618.457031,1418.952393 
	C1588.419922,1418.952393 1559.656616,1418.952393 1529.659058,1418.952393 
	C1529.659058,1414.672729 1529.659058,1411.101685 1529.659058,1407.530762 
	C1529.658936,1300.217651 1529.658813,1192.904419 1529.659546,1085.591309 
	C1529.659546,1083.924927 1529.603760,1082.255371 1529.686157,1080.592773 
	C1530.093506,1072.372803 1531.765991,1070.434814 1539.791748,1070.388062 
	C1563.119995,1070.252197 1586.451172,1070.502563 1609.777100,1070.235474 
	C1616.210571,1070.161987 1619.255615,1073.937500 1622.388794,1078.423462 
	C1640.883911,1104.903198 1659.463989,1131.323730 1677.983521,1157.786377 
	C1725.522583,1225.715820 1773.041504,1293.659180 1820.588257,1361.583252 
	C1822.296265,1364.023315 1824.213623,1366.316895 1826.440430,1369.206909 
	C1829.551270,1365.435791 1828.257812,1361.380859 1828.261719,1357.770386 
	C1828.350220,1273.786255 1828.329834,1189.802124 1828.330688,1105.817871 
	C1828.330688,1097.152832 1828.198486,1088.484863 1828.381348,1079.823608 
	C1828.545654,1072.042969 1830.058105,1070.433960 1837.868896,1070.388428 
	C1860.863770,1070.254517 1883.860718,1070.240479 1906.855103,1070.407471 
	C1914.422241,1070.462402 1915.918579,1072.270142 1916.299438,1080.064087 
	C1916.445679,1083.056641 1916.340820,1086.061890 1916.340942,1089.061279 
	C1916.341797,1195.707520 1916.341431,1302.353882 1916.341431,1410.000244 
z"/>
<path fill="#00BE62" opacity="1.000000" stroke="none" 
	d="
M3242.422363,1512.535156 
	C3213.861816,1524.009155 3184.961670,1528.499023 3154.937988,1528.562622 
	C3123.934814,1528.628296 3094.024902,1524.463013 3065.139160,1512.940186 
	C3021.014160,1495.338623 2987.791992,1465.377930 2964.459961,1424.351562 
	C2945.736572,1391.428955 2936.258545,1355.844482 2933.419434,1318.025635 
	C2930.105957,1273.882935 2936.999268,1231.777466 2955.698242,1191.847046 
	C2986.242676,1126.621704 3037.283691,1087.351440 3108.164795,1074.363647 
	C3150.843994,1066.543457 3192.901855,1069.378418 3234.037109,1083.580811 
	C3258.910889,1092.168945 3281.073975,1105.395020 3300.522949,1123.088745 
	C3336.481201,1155.801880 3357.927002,1196.755371 3367.981201,1243.868286 
	C3380.012695,1300.247681 3375.020264,1355.033936 3350.520508,1407.504639 
	C3327.951416,1455.840942 3292.844482,1491.590454 3242.422363,1512.535156 
M3041.806152,1385.118652 
	C3051.968018,1403.166748 3065.637451,1418.045044 3083.322266,1428.769287 
	C3114.651367,1447.766968 3148.472656,1452.526001 3184.135742,1444.787354 
	C3206.418701,1439.951904 3226.087646,1430.003784 3242.485840,1414.018799 
	C3273.317871,1383.963257 3286.009033,1346.215698 3287.462158,1304.291382 
	C3288.178223,1283.628784 3284.768555,1263.192627 3277.952393,1243.535645 
	C3266.910400,1211.693848 3248.524414,1185.451050 3218.770020,1168.433472 
	C3191.712158,1152.958008 3162.441895,1149.359253 3131.961182,1153.799194 
	C3097.673584,1158.793701 3069.160156,1174.521606 3049.911865,1203.380615 
	C3011.195557,1261.428223 3009.788330,1322.014160 3041.806152,1385.118652 
z"/>
<path fill="#00BD62" opacity="1.000000" stroke="none" 
	d="
M622.325989,1194.000732 
	C622.325989,1180.697510 622.325989,1168.394043 622.325989,1154.800659 
	C615.827393,1154.633911 609.990112,1154.242065 604.165283,1154.378052 
	C582.482056,1154.883911 561.020325,1157.274780 540.332275,1164.084595 
	C489.456757,1180.831299 460.895844,1216.555664 452.442566,1268.871460 
	C448.695160,1292.063110 449.718292,1315.292725 454.039032,1338.316406 
	C463.138428,1386.803833 491.020813,1419.046143 538.058899,1434.443115 
	C559.763428,1441.547607 582.158508,1444.192871 604.879761,1444.291382 
	C636.204102,1444.427246 667.529480,1444.325806 698.854370,1444.326050 
	C702.496521,1444.326172 706.138672,1444.326050 710.775513,1444.326050 
	C711.109680,1447.708252 711.624329,1450.546631 711.633423,1453.386597 
	C711.701843,1474.713989 711.725464,1496.041870 711.646729,1517.369141 
	C711.609070,1527.571411 710.915588,1528.338257 700.961609,1528.300171 
	C664.315735,1528.160156 627.609375,1529.144043 591.040100,1527.360718 
	C544.446045,1525.088745 499.463013,1514.903442 458.446503,1491.368774 
	C414.090637,1465.918213 384.920502,1428.246948 371.861359,1378.974609 
	C356.530457,1321.130981 356.376953,1263.090332 375.349701,1205.909302 
	C392.478302,1154.286133 427.393188,1118.469482 476.803925,1096.564697 
	C505.016632,1084.057495 534.819458,1077.540894 565.358521,1073.812256 
	C610.816223,1068.262207 656.456116,1071.002808 702.021790,1070.345337 
	C702.687317,1070.335815 703.355042,1070.364258 704.019348,1070.409668 
	C708.758911,1070.733643 711.296814,1073.280273 711.584595,1078.012695 
	C711.685608,1079.673828 711.668823,1081.343384 711.668945,1083.009155 
	C711.672668,1137.327881 711.677429,1191.646606 711.655151,1245.965332 
	C711.654053,1248.601929 711.409485,1251.238647 711.284607,1253.748169 
	C704.078064,1256.084717 635.646545,1256.652222 622.325989,1254.327881 
	C622.325989,1234.744019 622.325989,1214.872192 622.325989,1194.000732 
z"/>
<path fill="#00BE63" opacity="1.000000" stroke="none" 
	d="
M1997.659912,1139.999756 
	C1997.662231,1119.666870 1997.586304,1100.333618 1997.701294,1081.001465 
	C1997.755371,1071.902832 1999.146973,1070.390747 2008.122314,1070.381226 
	C2075.120605,1070.309448 2142.118652,1070.346680 2209.116943,1070.377808 
	C2210.743652,1070.378540 2212.370361,1070.705322 2213.875732,1070.867065 
	C2216.046875,1078.144653 2216.724121,1137.102661 2214.757812,1153.723999 
	C2193.819580,1155.018066 2172.638428,1154.132080 2151.493408,1154.293335 
	C2130.246094,1154.455322 2108.996826,1154.328979 2087.053711,1154.328979 
	C2087.053711,1188.571289 2087.053711,1221.693604 2087.053711,1255.817139 
	C2091.148926,1255.994751 2095.029053,1256.307251 2098.908936,1256.309692 
	C2150.574219,1256.342407 2202.239502,1256.331421 2253.904785,1256.332397 
	C2256.571289,1256.332397 2259.243164,1256.235718 2261.903564,1256.366943 
	C2269.756348,1256.754272 2272.160645,1258.791138 2272.237793,1266.600708 
	C2272.448730,1287.931274 2272.443359,1309.266479 2272.253174,1330.597412 
	C2272.182617,1338.532349 2270.192871,1340.233154 2261.777100,1340.285034 
	C2242.445068,1340.403931 2223.111572,1340.328003 2203.778809,1340.328735 
	C2168.779785,1340.329834 2133.780518,1340.329346 2098.781494,1340.329468 
	C2095.175781,1340.329468 2091.569824,1340.329468 2088.230713,1340.329468 
	C2085.935059,1348.453857 2085.172363,1423.248169 2087.059326,1442.887085 
	C2097.267090,1444.529053 2107.840332,1443.440796 2118.317871,1443.628784 
	C2128.980713,1443.820190 2139.649902,1443.671021 2150.316162,1443.671021 
	C2160.982666,1443.671021 2171.648926,1443.671021 2182.315430,1443.671021 
	C2192.936768,1443.671021 2203.557861,1443.671021 2214.914307,1443.671021 
	C2214.914307,1472.007935 2214.914307,1499.452881 2214.914307,1527.724487 
	C2211.428467,1527.936523 2208.210449,1528.301270 2204.992432,1528.302979 
	C2139.994141,1528.336304 2074.995850,1528.328613 2009.997437,1528.324829 
	C2007.997803,1528.324707 2005.996948,1528.314575 2003.998901,1528.242920 
	C1999.994019,1528.099121 1997.867798,1525.989136 1997.753296,1521.988647 
	C1997.657959,1518.657715 1997.663574,1515.323242 1997.663452,1511.990356 
	C1997.659424,1388.326904 1997.659912,1264.663330 1997.659912,1139.999756 
z"/>
<path fill="#00BE62" opacity="1.000000" stroke="none" 
	d="
M3948.395020,1162.540405 
	C3932.572998,1190.335938 3917.111572,1217.492188 3901.423096,1245.047119 
	C3904.852051,1246.567871 3907.509766,1247.891602 3910.269775,1248.948730 
	C3947.213867,1263.099121 3971.570801,1289.525635 3984.105713,1326.565918 
	C3995.657471,1360.700928 3997.514160,1395.715820 3988.734619,1430.799561 
	C3977.458008,1475.861938 3948.578613,1505.352295 3905.062988,1519.793823 
	C3868.426025,1531.952393 3830.875977,1533.411011 3794.368896,1519.440674 
	C3744.691162,1500.430664 3715.670410,1464.342651 3709.665527,1410.807983 
	C3709.148438,1406.198975 3708.556152,1401.572510 3708.486572,1396.946777 
	C3708.422363,1392.686035 3710.864258,1390.140625 3715.241455,1389.861450 
	C3717.898193,1389.692139 3720.568115,1389.676758 3723.231934,1389.674805 
	C3742.229248,1389.660034 3761.226807,1389.655884 3780.224121,1389.670654 
	C3793.076172,1389.680664 3793.514648,1389.632202 3795.357666,1402.142944 
	C3799.294922,1428.865723 3822.099121,1445.425781 3848.621094,1445.206421 
	C3872.980957,1445.005249 3890.566406,1432.262085 3900.552246,1409.543213 
	C3911.416260,1384.827271 3904.676025,1347.774414 3884.735352,1330.084839 
	C3872.985840,1319.661621 3859.511475,1314.061279 3843.989990,1313.753174 
	C3826.999023,1313.415771 3809.996094,1313.676514 3792.998535,1313.669189 
	C3790.666016,1313.668213 3788.309326,1313.830811 3786.005127,1313.563477 
	C3778.890869,1312.738403 3776.744141,1308.916382 3780.222656,1302.587769 
	C3785.351074,1293.258423 3790.845947,1284.130249 3796.212891,1274.932861 
	C3818.528076,1236.690430 3840.862061,1198.458740 3863.153564,1160.202393 
	C3864.270020,1158.286621 3865.055664,1156.178345 3866.598145,1152.864746 
	C3862.098145,1152.656616 3858.608643,1152.358032 3855.118896,1152.354980 
	C3816.457520,1152.321411 3777.796387,1152.334351 3739.135010,1152.331787 
	C3736.468750,1152.331665 3733.802002,1152.261963 3731.136719,1152.304688 
	C3726.250488,1152.383179 3723.685303,1150.192627 3723.690918,1145.135254 
	C3723.715576,1122.805298 3723.583252,1100.474365 3723.759521,1078.145874 
	C3723.807373,1072.111328 3725.490234,1070.832520 3731.697266,1070.376709 
	C3733.687012,1070.230713 3735.695068,1070.328735 3737.694824,1070.328613 
	C3819.350098,1070.327271 3901.005371,1070.321289 3982.660645,1070.333130 
	C3998.020996,1070.335327 3999.407959,1072.812500 3991.702881,1086.374878 
	C3977.396973,1111.555786 3963.072510,1136.726196 3948.395020,1162.540405 
z"/>
<path fill="#00BE62" opacity="1.000000" stroke="none" 
	d="
M4144.000000,1152.333252 
	C4128.335938,1152.332153 4113.670898,1152.393555 4099.007324,1152.308838 
	C4088.692871,1152.249146 4087.740234,1151.316162 4087.687744,1140.702148 
	C4087.590820,1121.039307 4087.575439,1101.375122 4087.696289,1081.712524 
	C4087.757812,1071.698853 4089.169189,1070.362793 4099.486328,1070.353149 
	C4153.810547,1070.302734 4208.134277,1070.328003 4262.458496,1070.327271 
	C4290.120605,1070.326904 4317.782227,1070.327271 4345.444336,1070.327515 
	C4346.777344,1070.327515 4348.110840,1070.312256 4349.443359,1070.333130 
	C4361.251953,1070.517944 4363.202148,1073.860596 4357.315430,1084.241455 
	C4328.579590,1134.911743 4299.791016,1185.552246 4271.035645,1236.211426 
	C4269.412109,1239.072021 4267.915039,1242.003906 4266.442383,1244.747437 
	C4276.706543,1249.781006 4286.949219,1253.911621 4296.282715,1259.547607 
	C4325.130371,1276.966797 4342.471680,1303.270264 4351.393555,1335.166626 
	C4360.144043,1366.452026 4361.474609,1398.315430 4353.567871,1429.919067 
	C4341.710449,1477.308472 4310.959473,1507.468018 4264.774414,1521.409180 
	C4232.300781,1531.211792 4198.994141,1532.494995 4166.394043,1521.988281 
	C4114.536133,1505.274780 4083.310059,1469.904053 4074.433350,1415.706787 
	C4073.472656,1409.841675 4073.636475,1403.744995 4073.748291,1397.764648 
	C4073.867188,1391.388306 4075.121826,1390.236450 4081.343506,1389.749023 
	C4084.325684,1389.515381 4087.339111,1389.669189 4090.338379,1389.668701 
	C4109.334961,1389.665894 4128.332520,1389.607422 4147.328613,1389.694458 
	C4157.611328,1389.741577 4158.623535,1390.764038 4159.718262,1400.792969 
	C4162.093262,1422.546631 4180.816406,1441.057495 4202.956543,1444.324585 
	C4237.433594,1449.412231 4263.360352,1427.056274 4268.599121,1397.513184 
	C4273.606445,1369.273682 4267.475098,1344.458496 4244.195801,1325.963501 
	C4234.081055,1317.927490 4222.103516,1313.750610 4208.985840,1313.694092 
	C4192.322266,1313.622314 4175.658203,1313.675049 4158.994629,1313.671265 
	C4156.661621,1313.670776 4154.317383,1313.800903 4151.997559,1313.619751 
	C4142.982422,1312.915039 4140.813965,1309.158936 4145.300781,1301.377930 
	C4155.610840,1283.496948 4166.146484,1265.745972 4176.561523,1247.925171 
	C4193.359375,1219.184570 4210.148926,1190.438965 4226.887695,1161.663940 
	C4228.300781,1159.235352 4229.305176,1156.569458 4231.284668,1152.333252 
	C4201.379395,1152.333252 4173.189453,1152.333252 4144.000000,1152.333252 
z"/>
<path fill="#00BE62" opacity="1.000000" stroke="none" 
	d="
M791.656860,1437.999756 
	C791.656860,1378.413086 791.656860,1319.826416 791.656860,1260.109985 
	C796.269653,1259.944946 800.131226,1259.688965 803.992981,1259.686401 
	C848.305786,1259.657959 892.618652,1259.711182 936.931335,1259.642578 
	C950.935364,1259.620850 964.831299,1258.531860 978.252686,1254.044556 
	C999.407227,1246.972046 1011.857361,1231.251099 1012.321472,1210.984619 
	C1012.858643,1187.524170 1001.470215,1170.372192 980.132874,1162.129150 
	C968.496460,1157.633667 956.539917,1155.578247 944.054993,1155.615845 
	C897.743530,1155.755249 851.431396,1155.671143 805.119507,1155.671021 
	C801.182556,1155.671021 797.245605,1155.671021 792.695496,1155.671021 
	C792.285522,1152.341919 791.712891,1149.817627 791.704590,1147.291504 
	C791.632385,1125.301880 791.607971,1103.311768 791.683960,1081.322266 
	C791.718262,1071.381836 792.678101,1070.370483 802.514099,1070.359375 
	C853.157227,1070.302124 903.832764,1069.222656 954.433350,1070.690796 
	C993.730164,1071.830933 1030.637207,1082.558105 1061.123779,1109.339844 
	C1074.885864,1121.429199 1085.214111,1136.260620 1091.145752,1153.440430 
	C1103.461426,1189.110718 1104.693604,1225.281006 1091.399902,1260.995239 
	C1079.744629,1292.307495 1057.034058,1313.590820 1026.949341,1327.105103 
	C1000.816284,1338.844360 973.284546,1344.497070 944.582336,1344.349854 
	C925.924866,1344.254272 907.266357,1344.309082 888.608459,1344.355103 
	C885.364319,1344.363159 882.120911,1344.662842 877.671265,1344.889160 
	C877.671265,1349.438477 877.671387,1353.333862 877.671326,1357.229248 
	C877.671265,1409.205200 877.671570,1461.181030 877.669678,1513.156982 
	C877.669556,1515.822388 877.558167,1518.491211 877.659302,1521.152344 
	C877.850647,1526.187012 875.547668,1528.527466 870.480225,1528.331177 
	C867.153870,1528.202271 863.817749,1528.330200 860.486023,1528.330566 
	C841.828003,1528.333008 823.169983,1528.331543 804.511963,1528.331421 
	C800.902100,1528.331421 797.292175,1528.331421 792.880249,1528.331421 
	C790.613281,1517.726196 791.930420,1507.786499 791.705200,1497.971436 
	C791.483582,1488.314331 791.656799,1478.648193 791.656799,1468.985962 
	C791.656799,1458.990601 791.656860,1448.995239 791.656860,1437.999756 
z"/>
<path fill="#00BD62" opacity="1.000000" stroke="none" 
	d="
M4441.576660,1071.256104 
	C4445.359863,1070.669189 4448.343750,1070.349243 4451.327148,1070.348267 
	C4535.940430,1070.321411 4620.553711,1070.319214 4705.166992,1070.333618 
	C4719.495605,1070.335938 4720.867676,1072.474121 4715.711914,1086.104736 
	C4682.054199,1175.081543 4648.410156,1264.063721 4614.767090,1353.046021 
	C4594.182129,1407.493286 4573.604980,1461.943604 4553.021973,1516.391724 
	C4552.316406,1518.258667 4551.405762,1520.067139 4550.891602,1521.983398 
	C4549.528809,1527.060669 4546.172363,1528.456787 4541.184082,1528.403076 
	C4523.197754,1528.209351 4505.207520,1528.332275 4487.218750,1528.334351 
	C4480.889648,1528.335083 4474.559082,1528.396240 4468.230957,1528.317261 
	C4457.968750,1528.189331 4456.760742,1526.588867 4460.211426,1517.218506 
	C4465.498535,1502.862183 4470.947754,1488.565430 4476.335449,1474.246460 
	C4514.759277,1372.134277 4553.187500,1270.023315 4591.602539,1167.907837 
	C4593.203125,1163.652100 4594.687500,1159.352661 4596.728516,1153.674316 
	C4591.699219,1153.674316 4588.125977,1153.674316 4584.553223,1153.674316 
	C4540.914062,1153.674194 4497.275391,1153.674438 4453.636230,1153.672852 
	C4451.304199,1153.672852 4448.964844,1153.776489 4446.642090,1153.626831 
	C4439.469727,1153.164673 4437.789062,1151.739136 4437.733887,1144.537109 
	C4437.568848,1122.885498 4437.566895,1101.230591 4437.808594,1079.580444 
	C4437.838379,1076.933472 4439.741699,1074.307495 4441.576660,1071.256104 
z"/>
<path fill="#00BE62" opacity="1.000000" stroke="none" 
	d="
M3637.673340,1414.000244 
	C3637.561523,1451.301147 3637.466064,1487.602173 3637.263916,1523.902588 
	C3637.257568,1525.069702 3636.162842,1526.230835 3635.364990,1527.812012 
	C3607.500732,1527.812012 3579.641602,1527.812012 3550.620117,1527.812012 
	C3550.280273,1522.920410 3549.697754,1518.425049 3549.695557,1513.929565 
	C3549.644775,1403.676270 3549.655762,1293.423096 3549.655518,1183.169800 
	C3549.655518,1179.243286 3549.655273,1175.316772 3549.655273,1169.879761 
	C3544.388916,1171.561768 3540.333984,1172.700439 3536.391113,1174.145020 
	C3523.588867,1178.836182 3510.856445,1183.718384 3498.041748,1188.374634 
	C3487.506836,1192.202759 3485.757812,1191.445801 3481.015381,1181.561401 
	C3474.108887,1167.165405 3467.214355,1152.763672 3460.388916,1138.329224 
	C3456.644775,1130.411255 3456.869141,1129.180176 3464.611816,1124.952026 
	C3496.727539,1107.413574 3528.897705,1089.973267 3561.170898,1072.726685 
	C3564.208496,1071.103271 3568.098389,1070.477295 3571.605957,1070.432373 
	C3589.257080,1070.206909 3606.912598,1070.303467 3624.566406,1070.335938 
	C3637.147949,1070.359009 3637.659424,1070.837524 3637.662598,1083.239380 
	C3637.682373,1160.849731 3637.672852,1238.459961 3637.673340,1316.070312 
	C3637.673584,1348.380249 3637.673340,1380.690186 3637.673340,1414.000244 
z"/>
<path fill="#00BE62" opacity="1.000000" stroke="none" 
	d="
M1272.326660,1365.999756 
	C1272.326660,1322.740479 1272.326660,1280.481201 1272.326660,1238.447388 
	C1279.765747,1235.887817 1347.090332,1235.304321 1359.807861,1237.627563 
	C1359.979004,1240.651001 1360.319824,1243.875610 1360.320923,1247.100220 
	C1360.349731,1336.657715 1360.351929,1426.215210 1360.334961,1515.772705 
	C1360.332642,1528.030640 1360.068359,1528.298340 1348.252686,1528.321167 
	C1326.945312,1528.362183 1305.637939,1528.333008 1284.330566,1528.333130 
	C1281.065308,1528.333130 1277.800049,1528.333008 1273.511108,1528.333008 
	C1273.058472,1523.166138 1272.381226,1518.993408 1272.374878,1514.819580 
	C1272.300659,1465.546387 1272.326904,1416.273193 1272.326660,1365.999756 
z"/>
<path fill="#00BC62" opacity="1.000000" stroke="none" 
	d="
M1210.025879,1070.317871 
	C1286.639648,1070.317993 1362.259277,1070.317139 1437.878784,1070.321411 
	C1440.876465,1070.321533 1443.879883,1070.263550 1446.870483,1070.421997 
	C1451.574097,1070.671143 1454.287964,1073.064575 1454.291870,1077.967041 
	C1454.308716,1099.286743 1454.300537,1120.606567 1454.301270,1141.926270 
	C1454.301392,1146.813354 1451.694092,1149.259888 1446.976807,1149.574829 
	C1444.653931,1149.729736 1442.315552,1149.677979 1439.984253,1149.678101 
	C1357.369019,1149.682373 1274.753906,1149.681763 1192.138672,1149.680298 
	C1190.140015,1149.680176 1188.130493,1149.790649 1186.144653,1149.626221 
	C1180.198853,1149.133911 1178.466919,1147.690552 1178.414673,1141.583130 
	C1178.235107,1120.597900 1178.228149,1099.608887 1178.416138,1078.623779 
	C1178.472900,1072.290527 1180.438477,1070.596436 1187.046875,1070.389771 
	C1194.368652,1070.160767 1201.702759,1070.324829 1210.025879,1070.317871 
z"/>
<path fill="#000101" opacity="1.000000" stroke="none" 
	d="
M3041.431152,1384.485840 
	C3009.788330,1322.014160 3011.195557,1261.428223 3049.911865,1203.380615 
	C3069.160156,1174.521606 3097.673584,1158.793701 3131.961182,1153.799194 
	C3162.441895,1149.359253 3191.712158,1152.958008 3218.770020,1168.433472 
	C3248.524414,1185.451050 3266.910400,1211.693848 3277.952393,1243.535645 
	C3284.768555,1263.192627 3288.178223,1283.628784 3287.462158,1304.291382 
	C3286.009033,1346.215698 3273.317871,1383.963257 3242.485840,1414.018799 
	C3226.087646,1430.003784 3206.418701,1439.951904 3184.135742,1444.787354 
	C3148.472656,1452.526001 3114.651367,1447.766968 3083.322266,1428.769287 
	C3065.637451,1418.045044 3051.968018,1403.166748 3041.431152,1384.485840 
M3154.729248,1256.418945 
	C3152.110596,1256.807739 3149.480957,1257.134033 3146.875000,1257.595093 
	C3121.066406,1262.161255 3105.401367,1285.085449 3111.097168,1310.445190 
	C3115.150879,1328.495117 3126.751221,1339.698486 3144.643799,1343.400513 
	C3162.627197,1347.121338 3177.597656,1340.779907 3188.704834,1326.360596 
	C3198.669189,1313.424683 3199.080566,1292.338623 3190.625732,1278.115845 
	C3182.848877,1265.033447 3170.840088,1258.903687 3154.729248,1256.418945 
z"/>
<path fill="#00BD62" opacity="1.000000" stroke="none" 
	d="
M3155.538574,1256.530273 
	C3170.840088,1258.903687 3182.848877,1265.033447 3190.625732,1278.115845 
	C3199.080566,1292.338623 3198.669189,1313.424683 3188.704834,1326.360596 
	C3177.597656,1340.779907 3162.627197,1347.121338 3144.643799,1343.400513 
	C3126.751221,1339.698486 3115.150879,1328.495117 3111.097168,1310.445190 
	C3105.401367,1285.085449 3121.066406,1262.161255 3146.875000,1257.595093 
	C3149.480957,1257.134033 3152.110596,1256.807739 3155.538574,1256.530273 
z"/>
</svg>